<svg xmlns="http://www.w3.org/2000/svg" viewBox="0 0 128 128" width="512" height="512"><defs><linearGradient id="g" x1="0" y1="0" x2="1" y2="1"><stop offset="0" stop-color="#FF6A1F"/><stop offset="1" stop-color="#FF1E88"/></linearGradient><mask id="m" maskUnits="userSpaceOnUse" x="0" y="0" width="128" height="128"><rect width="128" height="128" fill="#000"/><g transform=" rotate(-5 64 64)"><path d="M22 22 C22 16 26 12 32 12 L44 12 L44 108 L22 108 Z" fill="#fff"></path><path d="M50 12 L64 12 C80 12 90 24 90 44 C90 64 80 76 64 76 L50 76 Z" fill="#fff"></path><path d="M66 31 L58 53 L74 53 Z" fill="#000"></path><rect x="96" y="80" width="14" height="14" rx="4" fill="#fff"></rect><rect x="110" y="62" width="11" height="11" rx="3" fill="#fff"></rect></g></mask></defs><rect width="128" height="128" rx="30" fill="url(#g)"/><rect width="128" height="128" fill="#fff" mask="url(#m)"/></svg>